<?xml version="1.0" encoding="utf-8" ?><svg xmlns="http://www.w3.org/2000/svg" xmlns:xlink="http://www.w3.org/1999/xlink" width="1365" height="1024" viewBox="0 0 1365 1024"><path fill="#FEFEFE" d="M0 0L1365 0L1365 161.042L1365 172.157L1365 177.328L1365 575.077L1365 580.916L1365 1024L1318.08 1024L1278.3 1024L1130.31 1024L1123.76 1024L1003.59 1024L963.772 1024L863.807 1024L858.463 1024L734.687 1024L695.785 1024L555.968 1024L550.001 1024L428.643 1024L391.374 1024L277.103 1024L271.195 1024L140.256 1024L100.093 1024L0 1024L0 855.418L0 848.551L0 463.501L0 455.691L0 403.855L0 0Z"/><path fill="#7FD8B7" d="M0 463.501C10.6083 467.376 23.1991 474.387 33.3834 479.793C46.7123 486.975 60.1538 493.946 73.7028 500.704C63.7292 526.726 74.3276 556.931 101.349 566.728C114.148 571.327 128.248 570.66 140.555 564.873C149.826 560.523 154.838 555.448 160.475 547.137C176.507 553.984 200.436 567.107 216.595 575.548C232.566 583.891 257.239 595.206 272.08 604.062L276.602 606.305C285.574 610.569 295.644 616.167 304.619 620.754L362.394 649.975C346.315 713.592 432.805 741.207 456.967 681.976C462.722 667.869 459.18 653.39 453.028 640C461.16 634.427 472.474 627.833 481.027 622.48L549.859 579.718L555.635 575.989C569.034 567.003 584.344 557.309 598.293 549.223C622.913 534.952 647.523 516.735 672.325 503.268C675.836 507.466 679.048 511.504 683.513 514.736C707.772 532.292 738.985 525.981 755.756 502.162C787.289 525.813 817.25 552.08 848.227 576.47C851.91 579.371 855.751 582.312 859.277 585.387C860.649 586.429 862.924 588.048 864.09 589.194L910.529 626.68C919.763 634.087 930.199 642.836 939.797 649.564C933.061 663.548 930.636 675.435 935.882 690.555C940.213 703.412 949.596 713.948 961.866 719.731C1000.11 737.664 1041.89 704.81 1030.72 661.201C1052.11 656.443 1073.46 651.478 1094.76 646.308C1100.27 644.994 1119.66 640.774 1123.72 639.193L1129.88 637.773C1141.43 636.063 1160.52 630.72 1172.74 627.832L1264.15 606.255C1266.83 614.951 1271.56 623.051 1278.3 629.219C1288.06 638.108 1300.98 642.705 1314.16 641.98C1327.48 641.281 1341.61 633.256 1349.93 623.157C1361.53 609.083 1362.11 599.41 1360.93 582.932C1362.26 581.147 1362.24 581.659 1365 580.916L1365 1024L1318.08 1024L1278.3 1024L1130.31 1024L1123.76 1024L1003.59 1024L963.772 1024L863.807 1024L858.463 1024L734.687 1024L695.785 1024L555.968 1024L550.001 1024L428.643 1024L391.374 1024L277.103 1024L271.195 1024L140.256 1024L100.093 1024L0 1024L0 855.418L0 848.551L0 463.501Z"/><path fill="#7FD8B7" d="M0 463.501C10.6083 467.376 23.1991 474.387 33.3834 479.793C46.7123 486.975 60.1538 493.946 73.7028 500.704C63.7292 526.726 74.3276 556.931 101.349 566.728C114.148 571.327 128.248 570.66 140.555 564.873C149.826 560.523 154.838 555.448 160.475 547.137C176.507 553.984 200.436 567.107 216.595 575.548C232.566 583.891 257.239 595.206 272.08 604.062L276.602 606.305L277.103 1024L271.195 1024L140.256 1024L100.093 1024L0 1024L0 855.418L0 848.551L0 463.501Z"/><path fill="#7FD8B7" d="M0 855.418L71.8503 855.093C73.4572 870.605 77.1317 881.491 89.7329 891.772C93.0055 894.389 96.5113 896.7 100.206 898.676C114.406 904.558 125.414 905.249 139.988 899.778C140.407 941.184 140.496 982.593 140.256 1024L100.093 1024L0 1024L0 855.418Z"/><path fill="#71E3AF" d="M100.206 898.676C114.406 904.558 125.414 905.249 139.988 899.778C140.407 941.184 140.496 982.593 140.256 1024L100.093 1024C100.605 982.771 100.538 939.91 100.206 898.676Z"/><path fill="#0C1253" d="M99.823 810.309C114.056 803.964 125.415 803.443 140.117 807.978C183.193 827.175 182.53 881.653 139.988 899.778C125.414 905.249 114.406 904.558 100.206 898.676C96.5113 896.7 93.0055 894.389 89.7329 891.772C77.1317 881.491 73.4572 870.605 71.8503 855.093L0 855.418L0 848.551C23.9548 849.061 48.0378 848.814 72.1649 849.349C75.6049 830.469 83.055 819.416 99.823 810.309Z"/><path fill="#71E3AF" d="M115.629 817.157C136.156 813.613 155.631 827.5 158.975 848.065C162.318 868.631 148.247 887.974 127.655 891.119C107.344 894.221 88.3255 880.379 85.0274 860.094C81.7293 839.809 95.3824 820.653 115.629 817.157Z"/><path fill="#0C1253" d="M116.351 823.653C133.038 820.559 149.079 831.557 152.213 848.24C155.347 864.923 144.391 880.995 127.72 884.171C110.991 887.357 94.8547 876.352 91.7099 859.612C88.5651 842.871 99.6073 826.757 116.351 823.653Z"/><path fill="#FEFEFE" d="M121.142 843.193C124.252 843.161 125.772 843.107 127.977 845.117L127.304 845.686C126.738 845.566 126.17 845.452 125.601 845.345C122.186 844.698 121.936 844.902 119.067 846.977C119.113 849.336 119.525 850.545 118.495 852.382C116.152 848.93 118.551 845.545 121.142 843.193Z"/><path fill="#71E3AF" d="M99.9801 710.315L139.987 710.237C139.813 742.793 140.428 775.356 140.117 807.978C125.415 803.443 114.056 803.964 99.823 810.309L99.9801 710.315Z"/><path fill="#FEFEFE" d="M272.08 604.062L276.602 606.305L277.103 1024L271.195 1024L271.288 729.893L271.261 648.673C271.259 642.864 270.702 606.889 272.08 604.062Z"/><path fill="#7FD8B7" d="M453.028 640C461.16 634.427 472.474 627.833 481.027 622.48L549.859 579.718C550.061 727.476 551.512 876.323 550.001 1024L428.643 1024L391.374 1024L277.103 1024L276.602 606.305C285.574 610.569 295.644 616.167 304.619 620.754L362.394 649.975C346.315 713.592 432.805 741.207 456.967 681.976C462.722 667.869 459.18 653.39 453.028 640Z"/><path fill="#71E3AF" d="M391.277 799.498C403.703 799.62 416.131 799.633 428.557 799.537L428.605 954.207C428.633 977.251 428.275 1001.05 428.643 1024L391.374 1024L391.277 799.498Z"/><path fill="#7FD8B7" d="M1264.15 606.255C1266.83 614.951 1271.56 623.051 1278.3 629.219C1288.06 638.108 1300.98 642.705 1314.16 641.98C1327.48 641.281 1341.61 633.256 1349.93 623.157C1361.53 609.083 1362.11 599.41 1360.93 582.932C1362.26 581.147 1362.24 581.659 1365 580.916L1365 1024L1318.08 1024L1278.3 1024L1130.31 1024L1123.76 1024L1123.72 639.193L1129.88 637.773C1141.43 636.063 1160.52 630.72 1172.74 627.832L1264.15 606.255Z"/><path fill="#71E3AF" d="M1278.31 683.421C1291.27 683.532 1305.43 683.92 1318.3 683.62L1318.08 1024L1278.3 1024L1278.41 791.598C1278.39 755.673 1278.72 719.304 1278.31 683.421Z"/><path fill="#FEFEFE" d="M1123.72 639.193L1129.88 637.773C1131.27 688.487 1130.22 743.9 1130.1 794.945L1130.31 1024L1123.76 1024L1123.72 639.193Z"/><path fill="#7FD8B7" d="M864.09 589.194L910.529 626.68C919.763 634.087 930.199 642.836 939.797 649.564C933.061 663.548 930.636 675.435 935.882 690.555C940.213 703.412 949.596 713.948 961.866 719.731C1000.11 737.664 1041.89 704.81 1030.72 661.201C1052.11 656.443 1073.46 651.478 1094.76 646.308C1100.27 644.994 1119.66 640.774 1123.72 639.193L1123.76 1024L1003.59 1024L963.772 1024L863.807 1024L863.835 743.859C863.827 692.595 863.405 640.41 864.09 589.194Z"/><path fill="#71E3AF" d="M963.555 839.823L1003.74 839.925C1003.55 900.48 1002.53 963.607 1003.59 1024L963.772 1024C963.741 963.267 964.579 900.369 963.555 839.823Z"/><path fill="#71E3AF" d="M695.898 662.158C708.931 662.162 722.175 662.037 735.189 662.175C734.317 687.177 734.529 713.227 734.523 738.277L734.54 844.681L734.548 962.536C734.557 982.477 734.18 1004.17 734.687 1024L695.785 1024L695.898 662.158Z"/><path fill="#FEFEFE" d="M549.859 579.718L555.635 575.989C556.65 586.669 555.894 611.001 555.898 622.538L555.961 715.52L555.968 1024L550.001 1024C551.512 876.323 550.061 727.476 549.859 579.718Z"/><path fill="#FEFEFE" d="M859.277 585.387C860.649 586.429 862.924 588.048 864.09 589.194C863.405 640.41 863.827 692.595 863.835 743.859L863.807 1024L858.463 1024C858.465 984.094 857.231 589.841 859.277 585.387Z"/><path fill="#7FD8B7" d="M904.804 429.239C932.419 401.527 960.629 375.016 988.865 347.925L1123.66 219.256L1123.76 375.948C1123.76 387.266 1122.69 487.092 1124.59 491.897C1088.19 539.509 1053.34 591.246 1017.97 639.904C993.191 618.817 965.143 620.505 943.484 644.85C918.827 626.56 887.725 601.052 863.954 581.324C865.047 565.488 863.981 536.919 863.929 520.054L863.997 406.427C873.567 410.522 895.593 423.565 904.804 429.239Z"/><path fill="#7FD8B7" d="M403.012 326.362C408.369 330.8 416.999 339.839 422.377 344.989C431.685 353.903 441.037 362.589 450.388 371.439C483.851 402.604 517.022 434.081 549.897 465.866L549.761 532.397C549.746 544.3 549.312 560.391 550.126 572.035C528.205 586.402 504.776 600.3 482.486 614.268C474.398 619.336 456.335 631.536 448.725 635.438C425.696 606.576 382.562 612.27 365.239 643.927L276.625 599.064C276.231 579.239 276.567 558.157 276.571 538.247C276.439 503.755 276.611 469.264 277.088 434.776C302.696 411.54 330.92 388.102 357.318 365.191L384.975 341.124C390.25 336.544 397.36 330.016 403.012 326.362Z"/><path fill="#7FD8B7" d="M1285.05 279.653C1301.21 256.937 1317.56 234.359 1334.11 211.924C1341.46 201.923 1356.73 180.62 1365 172.157L1365 177.328L1365 575.077C1363.47 575.232 1359.97 576.025 1359.22 574.793C1349.64 558.987 1338.32 547.272 1318.11 544.847C1304.9 543.285 1291.63 547.125 1281.29 555.495C1267.24 566.767 1259.8 582.761 1262.87 600.812C1224.59 607.699 1185.89 619.214 1147.74 627.296C1142.27 628.454 1135.79 629.966 1130.46 631.534L1124.37 633.135C1123.54 630.336 1123.84 600.008 1123.84 594.987L1123.59 502.951L1128.96 495.465C1152.57 462.235 1176.48 429.223 1200.7 396.434L1285.05 279.653Z"/><path fill="#FEFEFE" d="M1285.05 279.653C1301.21 256.937 1317.56 234.359 1334.11 211.924C1341.46 201.923 1356.73 180.62 1365 172.157L1365 177.328C1357.56 189.367 1349.26 201.254 1342.06 213.227C1327.9 236.748 1313.91 260.621 1300.07 284.337C1295.56 282.989 1289.3 281.311 1285.05 279.653Z"/><path fill="#FEFEFE" d="M1128.96 495.465C1131.21 500.526 1130.04 614.492 1130.46 631.534L1124.37 633.135C1123.54 630.336 1123.84 600.008 1123.84 594.987L1123.59 502.951L1128.96 495.465Z"/><path fill="#0C1253" d="M1365 161.042L1365 172.157C1356.73 180.62 1341.46 201.923 1334.11 211.924C1317.56 234.359 1301.21 256.937 1285.05 279.653L1200.7 396.434C1176.48 429.223 1152.57 462.235 1128.96 495.465L1123.59 502.951L1123.84 594.987C1123.84 600.008 1123.54 630.336 1124.37 633.135L1130.46 631.534C1135.79 629.966 1142.27 628.454 1147.74 627.296C1185.89 619.214 1224.59 607.699 1262.87 600.812C1259.8 582.761 1267.24 566.767 1281.29 555.495C1291.63 547.125 1304.9 543.285 1318.11 544.847C1338.32 547.272 1349.64 558.987 1359.22 574.793C1359.97 576.025 1363.47 575.232 1365 575.077L1365 580.916C1362.24 581.659 1362.26 581.147 1360.93 582.932C1362.11 599.41 1361.53 609.083 1349.93 623.157C1341.61 633.256 1327.48 641.281 1314.16 641.98C1300.98 642.705 1288.06 638.108 1278.3 629.219C1271.56 623.051 1266.83 614.951 1264.15 606.255L1172.74 627.832C1160.52 630.72 1141.43 636.063 1129.88 637.773L1123.72 639.193C1119.66 640.774 1100.27 644.994 1094.76 646.308C1073.46 651.478 1052.11 656.443 1030.72 661.201C1041.89 704.81 1000.11 737.664 961.866 719.731C949.596 713.948 940.213 703.412 935.882 690.555C930.636 675.435 933.061 663.548 939.797 649.564C930.199 642.836 919.763 634.087 910.529 626.68L864.09 589.194C862.924 588.048 860.649 586.429 859.277 585.387C855.751 582.312 851.91 579.371 848.227 576.47C817.25 552.08 787.289 525.813 755.756 502.162C738.985 525.981 707.772 532.292 683.513 514.736C679.048 511.504 675.836 507.466 672.325 503.268C647.523 516.735 622.913 534.952 598.293 549.223C584.344 557.309 569.034 567.003 555.635 575.989L549.859 579.718L481.027 622.48C472.474 627.833 461.16 634.427 453.028 640C459.18 653.39 462.722 667.869 456.967 681.976C432.805 741.207 346.315 713.592 362.394 649.975L304.619 620.754C295.644 616.167 285.574 610.569 276.602 606.305L272.08 604.062C257.239 595.206 232.566 583.891 216.595 575.548C200.436 567.107 176.507 553.984 160.475 547.137C154.838 555.448 149.826 560.523 140.555 564.873C128.248 570.66 114.148 571.327 101.349 566.728C74.3276 556.931 63.7292 526.726 73.7028 500.704C60.1538 493.946 46.7123 486.975 33.3834 479.793C23.1991 474.387 10.6083 467.376 0 463.501L0 455.691L77.0523 495.56C84.7663 484.02 95.6078 476.081 109.384 473.415C122.661 470.802 136.429 473.738 147.485 481.542C166.764 494.925 174.77 519.752 163.912 541.108C180.29 550.177 198.518 558.977 215.28 567.466L270.788 596.114C272.582 597.059 274.791 598.305 276.625 599.064L365.239 643.927C382.562 612.27 425.696 606.576 448.725 635.438C456.335 631.536 474.398 619.336 482.486 614.268C504.776 600.3 528.205 586.402 550.126 572.035L555.832 568.298L630.198 521.928C642.792 514.081 657.017 505.685 669.236 497.507C663.253 484.935 661.195 473.259 666.03 459.782C670.497 447.254 679.786 437.031 691.83 431.391C717.713 419.466 748.31 430.59 759.142 457.089C765.123 471.72 764.687 482.273 759.177 496.892C771.4 504.931 786.701 518.105 798.361 527.664L858.443 576.821L863.954 581.324C887.725 601.052 918.827 626.56 943.484 644.85C965.143 620.505 993.191 618.817 1017.97 639.904C1053.34 591.246 1088.19 539.509 1124.59 491.897C1126.6 489.378 1128.7 486.38 1130.62 483.753C1146.99 459.258 1161.96 439.122 1179.27 415.39L1252.99 313.575C1261.67 301.474 1270.5 289.775 1278.95 277.483C1297.09 252.267 1315.41 227.171 1333.89 202.197C1343.21 189.526 1354.93 172.64 1365 161.042Z"/><path fill="#7FD8B7" d="M1022.07 644.382C1025.83 639.809 1031.01 632.017 1034.73 626.893C1044.89 612.867 1054.96 598.773 1064.94 584.614C1083.9 558.049 1105.38 529.715 1123.59 502.951L1123.84 594.987C1123.84 600.008 1123.54 630.336 1124.37 633.135C1112.82 635.355 1098 639.343 1086.33 642.111C1066.95 646.53 1047.62 651.196 1028.36 656.106C1026.45 652.027 1024.28 648.294 1022.07 644.382Z"/><path fill="#71E3AF" d="M980.049 637.066C1000.93 635.385 1019.27 650.867 1021.11 671.743C1022.95 692.62 1007.62 711.076 986.763 713.083C965.675 715.112 946.973 699.566 945.109 678.458C943.245 657.35 958.932 638.766 980.049 637.066Z"/><path fill="#0C1253" d="M975.994 644.85C992.633 640.948 1009.28 651.276 1013.19 667.918C1017.09 684.561 1006.76 701.216 990.126 705.121C973.486 709.026 956.832 698.698 952.929 682.053C949.027 665.409 959.353 648.752 975.994 644.85Z"/><path fill="#FEFEFE" d="M970.695 673.011C971.855 672.039 973.565 672.117 974.632 673.191C975.698 674.264 975.766 675.976 974.787 677.13C974.075 677.969 972.952 678.336 971.882 678.078C970.813 677.82 969.98 676.981 969.729 675.91C969.478 674.839 969.851 673.717 970.695 673.011Z"/><path fill="#71E3AF" d="M705.747 438.83C719.01 435.907 732.819 440.353 741.887 450.466C750.955 460.578 753.877 474.791 749.536 487.662C745.194 500.533 734.26 510.07 720.921 512.62C700.693 516.488 681.109 503.386 676.96 483.208C672.811 463.031 685.635 443.262 705.747 438.83Z"/><path fill="#0C1253" d="M707.777 445.246C724.555 441.937 740.831 452.88 744.104 469.669C747.376 486.458 736.401 502.715 719.609 505.952C702.868 509.18 686.675 498.242 683.412 481.504C680.15 464.766 691.05 448.545 707.777 445.246Z"/><path fill="#71E3AF" d="M112.039 484.785C132.162 480.795 151.704 493.897 155.66 514.032C159.615 534.167 146.484 553.691 126.347 557.614C106.258 561.527 86.7951 548.43 82.8488 528.343C78.9025 508.256 91.9635 488.766 112.039 484.785Z"/><path fill="#0C1253" d="M113.584 491.913C129.634 488.72 145.23 499.156 148.404 515.214C151.578 531.271 141.126 546.859 125.069 550.016C109.037 553.168 93.4834 542.734 90.3145 526.702C87.1456 510.669 97.5595 495.1 113.584 491.913Z"/><path fill="#B6C2CD" d="M123.521 503.778C127.294 507.753 115.691 518.596 120.738 524.297C122.871 524.497 121.906 524.717 123.735 523.628L122.203 522.416L122.202 521.649L124.675 521.013C125.482 522.2 125.617 522.143 125.57 523.541C124.392 525.229 124.118 525.206 122.102 525.99C119.731 525.812 120.684 526.296 119.14 524.509C117.69 518.328 121.435 510.046 123.521 503.778Z"/><path fill="#B6C2CD" d="M112.933 529.849C114.643 528.953 116.757 529.597 117.677 531.295C118.597 532.993 117.982 535.116 116.298 536.06C115.187 536.682 113.827 536.658 112.738 535.997C111.65 535.335 111.002 534.139 111.042 532.866C111.082 531.593 111.805 530.44 112.933 529.849Z"/><path fill="#71E3AF" d="M1312.68 556.015C1332.93 556.308 1349.2 572.815 1349.2 593.077C1349.2 613.339 1332.94 629.848 1312.68 630.144C1299.32 630.34 1286.88 623.319 1280.14 611.772C1273.4 600.225 1273.4 585.94 1280.13 574.392C1286.87 562.844 1299.31 555.821 1312.68 556.015Z"/><path fill="#0C1253" d="M1308.7 563.074C1325.17 561.127 1340.12 572.863 1342.15 589.33C1344.17 605.798 1332.51 620.805 1316.06 622.907C1299.49 625.023 1284.37 613.263 1282.33 596.685C1280.29 580.108 1292.12 565.034 1308.7 563.074Z"/><path fill="#71E3AF" d="M402.75 629.423C422.778 625.384 442.27 638.407 446.211 658.46C450.151 678.512 437.037 697.946 416.97 701.79C397.041 705.608 377.773 692.599 373.86 672.684C369.946 652.768 382.858 633.433 402.75 629.423Z"/><path fill="#0C1253" d="M407.101 635.441C423.657 633.882 438.352 646.016 439.957 662.572C441.561 679.127 429.47 693.859 412.923 695.51C396.312 697.167 381.512 685.016 379.902 668.395C378.291 651.775 390.48 637.006 407.101 635.441Z"/><path fill="#B6C2CD" d="M409.581 656.943C411.421 658.019 411.436 658.21 412.545 660.121C412.322 667.091 403.211 667.327 398.626 669.465C397.451 670.013 399.34 671.711 397.544 673.773L395.614 673.393C393.681 672.653 393.665 672.651 391.991 671.441L392.044 670.185C397.036 666.503 413.984 668.478 409.581 656.943Z"/><path fill="#7FD8B7" d="M716.446 322.04L858.49 403.433L858.443 576.821L798.361 527.664C786.701 518.105 771.4 504.931 759.177 496.892C764.687 482.273 765.123 471.72 759.142 457.089C748.31 430.59 717.713 419.466 691.83 431.391C679.786 437.031 670.497 447.254 666.03 459.782C661.195 473.259 663.253 484.935 669.236 497.507C657.017 505.685 642.792 514.081 630.198 521.928L555.832 568.298L555.799 465.546L716.446 322.04Z"/><path fill="#7FD8B7" d="M108.419 337.944L270.936 434.981C270.987 488.278 270.304 542.969 270.788 596.114L215.28 567.466C198.518 558.977 180.29 550.177 163.912 541.108C174.77 519.752 166.764 494.925 147.485 481.542C136.429 473.738 122.661 470.802 109.384 473.415C95.6078 476.081 84.7663 484.02 77.0523 495.56L0 455.691L0 403.855C27.2332 390.398 53.5763 371.955 79.5128 355.971C89.238 349.977 98.3626 343.558 108.419 337.944Z"/><path fill="#7FD8B7" d="M1129.5 218.403C1140.05 223.367 1153.63 228.364 1164.68 232.767L1227.77 257.636C1241.01 262.791 1266.69 274.41 1278.95 277.483C1270.5 289.775 1261.67 301.474 1252.99 313.575L1179.27 415.39C1161.96 439.122 1146.99 459.258 1130.62 483.753C1129.3 475.807 1129.68 460.725 1129.69 452.194L1129.73 403.802C1129.71 342.421 1130.3 279.722 1129.5 218.403Z"/></svg>